<svg id="Layer_1" data-name="Layer 1" xmlns="http://www.w3.org/2000/svg" viewBox="0 0 200.81 216.54"><defs><style>.cls-1,.cls-2{fill:#fff;}.cls-2{stroke:#000;stroke-miterlimit:10;stroke-width:10px;}</style></defs><circle class="cls-1" cx="88" cy="32.37" r="25.5"/><path d="M93.5,16.5A20.5,20.5,0,1,1,73,37,20.53,20.53,0,0,1,93.5,16.5m0-10A30.5,30.5,0,1,0,124,37,30.51,30.51,0,0,0,93.5,6.5Z" transform="translate(-5.5 -4.63)"/><path class="cls-2" d="M85.54,68.52s-88.48,25-73.29,136.7Z" transform="translate(-5.5 -4.63)"/><path class="cls-2" d="M100.56,67.92S189,93,173.85,204.62Z" transform="translate(-5.5 -4.63)"/><path class="cls-2" d="M201.28,16.77,10.72,208.23,201.26,20.77Z" transform="translate(-5.5 -4.63)"/></svg>