<svg id="Layer_1" data-name="Layer 1" xmlns="http://www.w3.org/2000/svg" viewBox="0 0 132.75 151.13"><defs><style>.cls-1,.cls-2,.cls-4,.cls-5{fill:#fff;}.cls-2,.cls-3,.cls-4,.cls-5{stroke:#000;stroke-miterlimit:10;}.cls-2,.cls-3{stroke-width:6px;}.cls-4{stroke-width:9px;}.cls-5{stroke-width:0.75px;}</style></defs><circle class="cls-1" cx="53.5" cy="29.63" r="17"/><path d="M54.5,19A12.5,12.5,0,1,1,42,31.5,12.52,12.52,0,0,1,54.5,19m0-9A21.5,21.5,0,1,0,76,31.5,21.51,21.51,0,0,0,54.5,10Z" transform="translate(-1 -1.87)"/><path class="cls-2" d="M9.25,143.78C131,9.19,130.75,8.22,130.75,8.22Z" transform="translate(-1 -1.87)"/><circle class="cls-3" cx="11.5" cy="139.63" r="8.5"/><path class="cls-4" d="M54.84,48.76s56,5.82,38.37,100.36C93.21,149.12,111.06,65.63,54.84,48.76Z" transform="translate(-1 -1.87)"/><path class="cls-4" d="M53.14,48.36s-56.07,4.93-40,99.74C13.18,148.1-3.34,64.33,53.14,48.36Z" transform="translate(-1 -1.87)"/><circle class="cls-5" cx="11" cy="139.13" r="6.5"/></svg>