<svg id="Capa_1" enable-background="new 0 0 512 512" height="512" viewBox="0 0 512 512" width="512" xmlns="http://www.w3.org/2000/svg"><g><path d="m488.07 425.021c15.726-26.841 24.005-57.356 24.005-88.688 0-92.013-71.111-167.72-161.261-175.073-7.353-90.149-83.06-161.26-175.073-161.26-96.862 0-175.666 78.804-175.666 175.666 0 31.332 8.279 61.848 24.005 88.688l-24.08 87.053 87.054-24.078c22.706 13.302 48.046 21.253 74.281 23.394 7.345 90.157 83.056 161.277 175.073 161.277 31.332 0 61.848-8.279 88.688-24.005l87.054 24.08zm-396.297-130.124-48.744 13.483 13.482-48.745-3.601-5.634c-14.939-23.37-22.836-50.458-22.836-78.335.001-80.32 65.347-145.666 145.667-145.666 80.321 0 145.667 65.346 145.667 145.666 0 80.321-65.346 145.667-145.667 145.667-27.876 0-54.963-7.896-78.335-22.835zm377.348 174.149-48.744-13.482-5.634 3.601c-23.37 14.939-50.458 22.835-78.335 22.835-75.499 0-137.761-57.738-144.964-131.377 84.359-7.509 151.746-74.897 159.255-159.256 73.639 7.204 131.377 69.466 131.377 144.965 0 27.877-7.896 54.965-22.836 78.335l-3.601 5.634z"/><path d="m218.875 282.439 63.64-63.64-43.134-43.134 43.134-43.133-63.64-63.64-43.134 43.134-43.133-43.134-63.64 63.64 43.134 43.133-43.133 43.135 63.64 63.64 43.133-43.134zm-107.48-63.639 43.134-43.134-43.134-43.133 21.214-21.214 43.133 43.134 43.134-43.134 21.214 21.214-43.134 43.133 43.134 43.134-21.214 21.214-43.134-43.134-43.133 43.134z"/></g></svg>