<?xml version="1.0" encoding="utf-8"?>
<!-- Generator: Adobe Illustrator 24.1.3, SVG Export Plug-In . SVG Version: 6.00 Build 0)  -->
<svg version="1.1" id="Layer_1" xmlns="http://www.w3.org/2000/svg" xmlns:xlink="http://www.w3.org/1999/xlink" x="0px" y="0px"
	 viewBox="0 0 945.451 194.718" style="enable-background:new 0 0 945.451 194.718;" xml:space="preserve">
<style type="text/css">
	.st0{stroke:#000000;stroke-miterlimit:10;}
	.st1{fill:#F15A24;stroke:#F15A24;stroke-miterlimit:10;}
	.st2{fill:none;}
	.st3{stroke:#000000;stroke-width:2;stroke-miterlimit:10;}
</style>
<path class="st0" d="M83.418,4.526c-18.91,0-34.24,15.33-34.24,34.25c0,12.73,6.95,23.84,17.26,29.73h0.01
	c5.01,2.87,10.79,4.51,16.97,4.51c18.92,0,34.25-15.33,34.25-34.24C117.668,19.856,102.338,4.526,83.418,4.526z M102.288,52.936
	c-0.8,1.07-1.7,2.06-2.68,2.97c-4.24,3.97-9.93,6.39-16.19,6.39c-13.09,0-23.7-10.61-23.7-23.7c0-6.89,2.94-13.1,7.63-17.43
	c0.83-0.77,1.71-1.47,2.64-2.1c3.81-2.64,8.44-4.18,13.43-4.18c13.1,0,23.71,10.61,23.71,23.71
	C107.128,43.986,105.328,48.956,102.288,52.936z"/>
<path class="st0" d="M68.898,17.916l1.09,1.15c-0.93,0.63-1.81,1.33-2.64,2.1l-0.9-0.97L68.898,17.916z"/>
<path class="st0" d="M103.458,54.166l-2.79,2.88l-1.06-1.14c0.98-0.91,1.88-1.9,2.68-2.97L103.458,54.166z"/>
<path class="st0" d="M66.445,68.506c0,0-75.557,8.903-42.431,110.311C24.014,178.817-4.026,96.11,66.445,68.506z"/>
<path class="st0" d="M101.126,68.402c0,0,74.683,14.511,34.089,113.167C135.215,181.569,169.343,101.183,101.126,68.402z"/>
<path class="st0" d="M203.848,54.407l-2.749,1.971L147.45,94.803l-4.133,2.965L7.961,194.718l-3.839-4.525l31.668-22.499
	l0.066-0.038l104.967-74.575h0.009l4.028-2.87l50.777-36.073l5.213-3.702C201.725,51.853,202.73,53.182,203.848,54.407z"/>
<path class="st0" d="M224.328,9.226c-1.05-0.13-2.13-0.19-3.21-0.19c-15.71,0-28.44,12.73-28.44,28.44c0,5.53,1.58,10.69,4.31,15.06
	l3.63-2.56c-2.07-3.54-3.25-7.66-3.25-12.06c0-7.11,3.09-13.49,8-17.88l11.49,16.05l16.29,22.74c-3.48,1.98-7.5,3.1-11.78,3.1
	c-3.95,0-7.68-0.96-10.96-2.65c-2.54-1.3-4.8-3.04-6.71-5.11l-3.55,2.52c2.54,2.78,5.64,5.06,9.11,6.65
	c0.01,0.01,0.01,0.01,0.02,0.01c3.61,1.66,7.62,2.58,11.84,2.58c15.71,0,28.44-12.74,28.44-28.45
	C249.558,22.856,238.528,10.806,224.328,9.226z M236.638,56.446c-2.43-3.51-7.53-10.85-18.16-26.18c-2.68-3.85-5.7-8.2-9.11-13.13
	c3.53-2.05,7.63-3.22,12-3.22c0.55,0,1.1,0.02,1.64,0.06c12.49,0.84,22.36,11.24,22.36,23.94
	C245.368,45.376,241.968,52.036,236.638,56.446z"/>
<path class="st1" d="M299.661,9.036"/>
<path class="st0" d="M224.378,9.036l-0.05,0.19l-1.32,4.75c-0.54-0.04-1.09-0.06-1.64-0.06c-4.37,0-8.47,1.17-12,3.22
	c3.41,4.93,6.43,9.28,9.11,13.13l-1.62,5.82l-11.49-16.05c-4.91,4.39-8,10.77-8,17.88c0,4.4,1.18,8.52,3.25,12.06l-3.63,2.56
	c0.92,1.48,1.98,2.87,3.16,4.15l3.55-2.52c1.91,2.07,4.17,3.81,6.71,5.11l-1.13,4.07c-0.01,0-0.01,0-0.02-0.01
	c-4.23-1.56-8.23-3.1-12.01-4.59c-1.98-0.79-3.9-1.57-5.76-2.34c-40.69-16.74-53.31-28.52-53.31-28.52l9.12-4.82
	C197.998,4.056,224.378,9.036,224.378,9.036z"/>
<rect x="-41.563" y="-7.098" class="st2" width="299.154" height="227.154"/>
<path class="st0" d="M236.638,56.446c-1.09,0.89-2.25,1.7-3.49,2.38l-16.29-22.74l-11.49-16.05c1.23-1.1,2.56-2.08,4-2.9
	c3.41,4.93,6.43,9.28,9.11,13.13C229.108,45.596,234.208,52.936,236.638,56.446z"/>
<path class="st0" d="M238.888,59.676h-5.13l-0.61-0.85l-16.29-22.74l-11.49-16.05l-1.52-2.12l3.95-3.03
	c0.53,0.76,1.05,1.51,1.57,2.25c3.41,4.93,6.43,9.28,9.11,13.13c10.63,15.33,15.73,22.67,18.16,26.18
	C238.888,59.676,238.888,59.676,238.888,59.676z"/>
<g>
	<path class="st3" d="M311.034,16.16l22.186,112.092c2.869,14.614,6.217,29.119,10.042,43.514l8.506,3.798v1.085h-36.174v-1.085
		l13.937-3.798c-0.512-7.162-1.46-14.956-2.844-23.385c-1.383-8.426-2.912-15.751-4.585-21.973h-32.126
		c-1.366,7.307-2.468,13.311-3.305,18.013c-0.838,4.703-1.64,9.586-2.408,14.648c-0.769,5.064-1.272,9.297-1.512,12.696
		l13.425,3.798v1.085h-28.642v-1.085l9.428-3.798c2.287-8.392,4.389-17.65,6.302-27.779L306.986,16.16H311.034z M305.602,46.651
		c-0.922,3.835-2.144,9.44-3.663,16.819c-1.521,7.379-2.895,14.288-4.125,20.726c-1.229,6.439-2.51,13.292-3.843,20.563
		c-1.332,7.27-2.221,12.063-2.664,14.377c2.016,0.58,4.363,0.977,7.045,1.194c2.682,0.217,5.234,0.326,7.66,0.326
		c5.978,0,10.879-0.505,14.705-1.52c-1.299-8.174-3.502-19.803-6.609-34.886C311,69.168,308.165,56.634,305.602,46.651z
		 M306.423,37.536l26.592,134.879h3.433L308.113,28.421L306.423,37.536z"/>
	<path class="st3" d="M353.368,18.872v-1.085h25.874c1.708,4.92,3.92,10.851,6.636,17.796c2.715,6.945,5.132,12.913,7.25,17.904
		l22.954,54.039c3.04,7.018,5.405,12.443,7.096,16.277c1.691,3.835,3.886,8.501,6.584,13.999c0.205-4.992,0.342-9.658,0.41-13.999
		s0.103-8.426,0.103-12.262V64.664c0-16.855-0.393-30.78-1.179-41.777l-12.45-4.015v-1.085h30.486v1.085l-12.451,4.232
		c-0.649,10.129-0.974,23.078-0.974,38.847V180.88h-0.512c-5.227-14.034-10.401-27.164-15.525-39.391l-31.356-74.004
		c-4.646-10.488-8.608-18.844-11.888-25.066c-0.479,9.839-0.717,19.026-0.717,27.562v68.688c0,9.188,0.341,20.148,1.024,32.88
		l13.015,4.015v1.085h-31.152v-1.085l12.604-3.798c0.41-5.209,0.699-12.623,0.871-22.245c0.17-9.62,0.256-18.192,0.256-25.717
		v-53.17c0-6.294-0.051-12.533-0.153-18.718s-0.291-12.316-0.563-18.393l-6.814-10.634L353.368,18.872z M368.687,21.802
		l61.895,145.73v-10.2l-57.591-135.53H368.687z"/>
	<path class="st3" d="M460.158,17.787h44.474c2.698,0,5.175-0.163,7.43-0.488c2.254-0.326,5.157-0.85,8.71-1.573l1.179,35.158
		h-0.615l-3.792-25.609c-3.108-1.156-6.353-1.736-9.734-1.736c-2.904,0-5.552,0.326-7.942,0.977
		c-2.391,0.651-4.97,1.736-7.736,3.255c-0.273,6.728-0.479,13.222-0.615,19.478c-0.137,6.258-0.239,12.045-0.307,17.362
		c-0.069,5.317-0.103,8.952-0.103,10.905v36.026c0,9.478,0.153,20.093,0.461,31.848c0.308,11.757,0.683,21.143,1.127,28.159
		l12.655,4.015v1.085h-38.684v-1.085l12.451-4.015c1.058-15.987,1.588-35.338,1.588-58.054V74.213
		c0-8.101-0.086-16.095-0.256-23.981c-0.172-7.884-0.462-15.371-0.871-22.462c-1.981-1.156-4.287-2.079-6.917-2.767
		c-2.631-0.687-5.124-1.102-7.48-1.248c-3.724,0-7.396,0.651-11.017,1.953l-3.688,25.826h-0.718l1.127-35.592
		c1.025,0.146,2.511,0.488,4.458,1.031S458.893,17.787,460.158,17.787z M482.292,21.802v150.613h3.434V21.802H482.292z"/>
	<path class="st3" d="M564.18,176.648h-38.735v-1.085l12.502-4.015c0.581-9.043,1.017-19.948,1.307-32.717
		c0.29-12.768,0.436-25.264,0.436-37.491v-18.23c0-24.812-0.513-44.959-1.537-60.441l-12.707-3.798v-1.085h38.735v1.085
		l-12.81,3.798c-0.376,7.018-0.648,13.366-0.819,19.044c-0.171,5.68-0.325,12.552-0.461,20.617
		c-0.137,8.067-0.205,15.645-0.205,22.733v23.981c0,4.413,0.077,11.629,0.23,21.647c0.153,10.021,0.358,18.502,0.615,25.446
		c0.256,6.945,0.503,12.153,0.742,15.626l12.707,3.798V176.648z M541.073,22.019v150.396h3.586V22.019H541.073z"/>
	<path class="st3" d="M565.833,18.872v-1.085h25.874c1.708,4.92,3.92,10.851,6.636,17.796c2.715,6.945,5.132,12.913,7.25,17.904
		l22.954,54.039c3.04,7.018,5.405,12.443,7.096,16.277c1.691,3.835,3.886,8.501,6.584,13.999c0.205-4.992,0.342-9.658,0.41-13.999
		s0.103-8.426,0.103-12.262V64.664c0-16.855-0.393-30.78-1.179-41.777l-12.45-4.015v-1.085h30.486v1.085l-12.451,4.232
		c-0.649,10.129-0.974,23.078-0.974,38.847V180.88h-0.512c-5.227-14.034-10.401-27.164-15.525-39.391l-31.356-74.004
		c-4.646-10.488-8.608-18.844-11.888-25.066c-0.479,9.839-0.717,19.026-0.717,27.562v68.688c0,9.188,0.341,20.148,1.024,32.88
		l13.015,4.015v1.085H569.06v-1.085l12.604-3.798c0.41-5.209,0.699-12.623,0.871-22.245c0.17-9.62,0.256-18.192,0.256-25.717v-53.17
		c0-6.294-0.051-12.533-0.153-18.718s-0.291-12.316-0.563-18.393l-6.814-10.634L565.833,18.872z M581.152,21.802l61.895,145.73
		v-10.2l-57.591-135.53H581.152z"/>
	<path class="st3" d="M704.902,16.16l22.186,112.092c2.869,14.614,6.217,29.119,10.042,43.514l8.506,3.798v1.085h-36.174v-1.085
		l13.937-3.798c-0.512-7.162-1.46-14.956-2.844-23.385c-1.383-8.426-2.912-15.751-4.585-21.973h-32.126
		c-1.366,7.307-2.468,13.311-3.305,18.013c-0.838,4.703-1.64,9.586-2.408,14.648c-0.769,5.064-1.272,9.297-1.512,12.696
		l13.425,3.798v1.085h-28.642v-1.085l9.428-3.798c2.287-8.392,4.389-17.65,6.302-27.779L700.854,16.16H704.902z M699.47,46.651
		c-0.922,3.835-2.144,9.44-3.663,16.819c-1.521,7.379-2.895,14.288-4.125,20.726c-1.229,6.439-2.51,13.292-3.843,20.563
		c-1.332,7.27-2.221,12.063-2.664,14.377c2.016,0.58,4.363,0.977,7.045,1.194c2.682,0.217,5.234,0.326,7.66,0.326
		c5.978,0,10.879-0.505,14.705-1.52c-1.299-8.174-3.502-19.803-6.609-34.886C704.868,69.168,702.033,56.634,699.47,46.651z
		 M700.291,37.536l26.592,134.879h3.433L701.981,28.421L700.291,37.536z"/>
	<path class="st3" d="M750.156,138.669l3.895,26.694c1.946,1.882,4.227,3.401,6.84,4.558c2.613,1.158,4.876,1.7,6.789,1.628
		c2.562,0,4.91-0.939,7.045-2.821c2.135-1.881,3.876-4.268,5.227-7.162c1.349-2.893,2.382-6.167,3.1-9.82
		c0.717-3.652,1.076-7.216,1.076-10.688c0-7.162-1.146-13.201-3.434-18.122c-2.288-4.918-6.122-11.212-11.502-18.881
		c-5.38-7.667-9.283-14.069-11.708-19.207c-2.084-4.558-3.638-9.132-4.662-13.727c-1.025-4.593-1.537-9.712-1.537-15.354
		c0-6.221,0.802-12.406,2.407-18.556c1.605-6.147,4.082-11.266,7.43-15.354c3.348-4.086,7.463-6.131,12.349-6.131
		c2.22,0,4.576,0.235,7.07,0.705c2.493,0.471,4.218,0.706,5.175,0.706c0.82-0.071,1.589-0.125,2.306-0.163
		c0.718-0.036,1.289-0.108,1.717-0.217c0.427-0.108,0.879-0.234,1.357-0.38l0.308,37.111h-0.666l-3.229-25.066
		c-4.748-4.412-8.881-6.619-12.398-6.619c-2.938,0-5.577,1.176-7.917,3.526c-2.34,2.352-4.158,5.571-5.456,9.658
		c-1.299,4.088-1.947,8.699-1.947,13.835c0,5.354,0.871,10.254,2.613,14.704c1.742,4.449,4.124,8.808,7.147,13.075
		c3.022,4.27,6.268,8.79,9.735,13.564c3.466,4.775,6.241,9.37,8.325,13.781c4.064,8.61,6.098,18.555,6.098,29.84
		c0,6.367-0.786,12.932-2.357,19.695c-1.571,6.765-4.219,12.497-7.941,17.199c-3.724,4.703-8.54,7.053-14.448,7.053
		c-2.084,0-4.621-0.254-7.609-0.76c-2.989-0.505-5.184-0.759-6.584-0.759c-0.649,0-1.152,0.037-1.512,0.108
		c-0.358,0.072-0.914,0.181-1.665,0.325s-1.195,0.217-1.332,0.217l-0.819-38.196H750.156z M775.211,18.004h-1.639
		c-3.759,0-7.225,1.592-10.401,4.775c-3.177,3.184-5.688,7.704-7.532,13.564c-1.845,5.859-2.767,12.479-2.767,19.857
		c0,9.188,1.896,17.796,5.688,25.826c1.673,3.401,3.235,6.258,4.688,8.572c1.452,2.316,3.646,5.588,6.584,9.82
		s5.286,7.705,7.046,10.417c1.759,2.712,3.202,5.3,4.329,7.758c3.074,6.511,4.611,13.781,4.611,21.811
		c0,5.499-0.709,10.797-2.126,15.897c-1.418,5.1-3.468,9.261-6.148,12.479c-2.683,3.22-5.833,4.866-9.453,4.938v1.193
		c4.167,0.29,7.881-1.265,11.144-4.666c3.262-3.399,5.756-7.884,7.48-13.455c1.725-5.57,2.588-11.321,2.588-17.254
		c0-5.135-0.394-9.801-1.179-13.998c-0.786-4.195-2.221-8.5-4.304-12.913c-1.196-2.531-3.349-6.058-6.456-10.58
		c-3.108-4.521-6.251-9.078-9.428-13.672c-3.177-4.593-5.5-8.373-6.968-11.34c-3.587-7.522-5.38-15.805-5.38-24.849
		c0-7.957,1.631-15.371,4.893-22.245c3.262-6.872,8.173-10.488,14.73-10.851V18.004z"/>
	<path class="st3" d="M800.945,138.669l3.895,26.694c1.946,1.882,4.227,3.401,6.84,4.558c2.613,1.158,4.876,1.7,6.789,1.628
		c2.562,0,4.91-0.939,7.045-2.821c2.135-1.881,3.876-4.268,5.227-7.162c1.349-2.893,2.382-6.167,3.1-9.82
		c0.717-3.652,1.076-7.216,1.076-10.688c0-7.162-1.146-13.201-3.434-18.122c-2.288-4.918-6.122-11.212-11.502-18.881
		c-5.38-7.667-9.283-14.069-11.708-19.207c-2.084-4.558-3.638-9.132-4.662-13.727c-1.025-4.593-1.537-9.712-1.537-15.354
		c0-6.221,0.802-12.406,2.407-18.556c1.605-6.147,4.082-11.266,7.43-15.354c3.348-4.086,7.463-6.131,12.349-6.131
		c2.22,0,4.576,0.235,7.07,0.705c2.493,0.471,4.218,0.706,5.175,0.706c0.82-0.071,1.589-0.125,2.306-0.163
		c0.718-0.036,1.289-0.108,1.717-0.217c0.427-0.108,0.879-0.234,1.357-0.38l0.308,37.111h-0.666l-3.229-25.066
		c-4.748-4.412-8.881-6.619-12.398-6.619c-2.938,0-5.577,1.176-7.917,3.526c-2.34,2.352-4.158,5.571-5.456,9.658
		c-1.299,4.088-1.947,8.699-1.947,13.835c0,5.354,0.871,10.254,2.613,14.704c1.742,4.449,4.124,8.808,7.147,13.075
		c3.022,4.27,6.268,8.79,9.735,13.564c3.466,4.775,6.241,9.37,8.325,13.781c4.064,8.61,6.098,18.555,6.098,29.84
		c0,6.367-0.786,12.932-2.357,19.695c-1.571,6.765-4.219,12.497-7.941,17.199c-3.724,4.703-8.54,7.053-14.448,7.053
		c-2.084,0-4.621-0.254-7.609-0.76c-2.989-0.505-5.184-0.759-6.584-0.759c-0.649,0-1.152,0.037-1.512,0.108
		c-0.358,0.072-0.914,0.181-1.665,0.325s-1.195,0.217-1.332,0.217l-0.819-38.196H800.945z M826,18.004h-1.639
		c-3.759,0-7.225,1.592-10.401,4.775c-3.177,3.184-5.688,7.704-7.532,13.564c-1.845,5.859-2.767,12.479-2.767,19.857
		c0,9.188,1.896,17.796,5.688,25.826c1.673,3.401,3.235,6.258,4.688,8.572c1.452,2.316,3.646,5.588,6.584,9.82
		s5.286,7.705,7.046,10.417c1.759,2.712,3.202,5.3,4.329,7.758c3.074,6.511,4.611,13.781,4.611,21.811
		c0,5.499-0.709,10.797-2.126,15.897c-1.418,5.1-3.468,9.261-6.148,12.479c-2.683,3.22-5.833,4.866-9.453,4.938v1.193
		c4.167,0.29,7.881-1.265,11.144-4.666c3.262-3.399,5.756-7.884,7.48-13.455c1.725-5.57,2.588-11.321,2.588-17.254
		c0-5.135-0.394-9.801-1.179-13.998c-0.786-4.195-2.221-8.5-4.304-12.913c-1.196-2.531-3.349-6.058-6.456-10.58
		c-3.108-4.521-6.251-9.078-9.428-13.672c-3.177-4.593-5.5-8.373-6.968-11.34c-3.587-7.522-5.38-15.805-5.38-24.849
		c0-7.957,1.631-15.371,4.893-22.245c3.262-6.872,8.173-10.488,14.73-10.851V18.004z"/>
	<path class="st3" d="M848.71,175.563l12.86-4.015c0.58-5.932,1.041-16.114,1.383-30.547c0.342-14.432,0.513-25.663,0.513-33.692
		V72.368c0-9.837-0.12-19.261-0.358-28.267c-0.239-9.006-0.563-16.149-0.974-21.431l-13.321-3.798v-1.085h38.068
		c5.465,0,9.804,1.863,13.015,5.588c3.21,3.727,5.465,8.374,6.763,13.944c1.298,5.571,1.947,11.431,1.947,17.579
		c0,10.997-1.733,19.695-5.2,26.097c-3.468,6.402-7.678,10.075-12.63,11.014v0.434c5.123,0.507,9.486,2.75,13.091,6.728
		c3.604,3.979,6.328,9.098,8.172,15.354c1.845,6.258,2.768,12.968,2.768,20.129c0,6.077-0.71,12.299-2.127,18.664
		c-1.418,6.366-3.996,11.847-7.736,16.439c-3.74,4.595-8.754,6.891-15.038,6.891H848.71V175.563z M864.952,21.802v150.613h3.586
		V21.802H864.952z M881.194,96.241c-3.349,0-5.688,0.507-7.02,1.52c-0.274,5.281-0.41,13.889-0.41,25.826
		c0,14.179,0.238,27.779,0.717,40.8c1.947,2.316,3.697,3.906,5.252,4.774c1.554,0.868,3.476,1.302,5.765,1.302
		c3.62,0,6.78-1.318,9.479-3.96c2.698-2.641,4.808-6.601,6.328-11.883c1.52-5.279,2.279-11.719,2.279-19.314
		s-0.862-14.324-2.587-20.183c-1.726-5.86-4.271-10.472-7.635-13.835S885.941,96.241,881.194,96.241z M881.091,23.755
		c-2.631,0-4.611,0.434-5.943,1.302c-0.854,11.575-1.281,25.283-1.281,41.126c0,11.575,0.103,18.99,0.308,22.245
		c1.502,1.302,3.535,1.953,6.097,1.953c3.415,0,6.456-1.319,9.12-3.961c2.664-2.64,4.766-6.546,6.303-11.719
		C897.231,69.53,898,63.145,898,55.549c0-5.86-0.582-11.194-1.742-16.006c-1.162-4.81-3.007-8.644-5.534-11.502
		C888.195,25.185,884.985,23.755,881.091,23.755z M882.474,20.392v0.868c3.723,0.217,6.892,1.828,9.505,4.829
		c2.613,3.002,4.568,7.09,5.866,12.262c1.298,5.173,1.947,11.123,1.947,17.85c0,6.367-0.572,11.955-1.717,16.765
		c-1.145,4.812-2.604,8.591-4.381,11.339c-1.776,2.75-3.62,4.63-5.533,5.643v1.194c4.747-1.374,8.445-5.372,11.093-11.991
		c2.646-6.619,3.971-14.486,3.971-23.601c0-5.643-0.436-10.67-1.307-15.083c-0.871-4.412-2.118-8.155-3.74-11.231
		c-1.622-3.074-3.476-5.388-5.559-6.944c-2.084-1.555-4.458-2.333-7.122-2.333C884.848,19.958,883.841,20.103,882.474,20.392z
		 M888.162,94.179v0.868c3.006,1.158,5.823,3.418,8.454,6.782c2.63,3.364,4.739,7.886,6.328,13.564
		c1.588,5.68,2.382,12.462,2.382,20.346c0,6.439-0.658,12.462-1.973,18.067c-1.315,5.607-3.45,10.219-6.404,13.835
		c-2.955,3.618-6.652,5.426-11.093,5.426v0.868c0.546,0.363,1.554,0.543,3.023,0.543c4.304,0,7.992-1.826,11.066-5.48
		c3.074-3.651,5.371-8.445,6.892-14.378c1.52-5.931,2.28-12.224,2.28-18.881c0-7.957-0.803-15.01-2.408-21.159
		c-1.606-6.148-3.988-11.014-7.147-14.595C896.402,96.404,892.602,94.469,888.162,94.179z"/>
</g>
</svg>
