<?xml version="1.0"?>
<svg xmlns="http://www.w3.org/2000/svg" viewBox="0 0 512 512" width="512" height="512"><g id="Solid"><path d="M208,200v32a48,48,0,0,0,96,0V124.659a8,8,0,0,0-4.8-7.33A32,32,0,0,1,304,57.01V74.162a16,16,0,1,0,16,0V57.01a32,32,0,0,1,4.8,60.319,8,8,0,0,0-4.8,7.33V232a64,64,0,0,1-128,0V149.039L230.186,192H216A8,8,0,0,0,208,200ZM328,464H305.163L289.89,408H222.11l-15.273,56H184v16H328Zm152-88V352H32v24a16.019,16.019,0,0,0,16,16H464A16.019,16.019,0,0,0,480,376Zm0-40H32V112A16.019,16.019,0,0,1,48,96H264.7A48.01,48.01,0,0,0,288,129.566V232a32,32,0,0,1-64,0V208h24a8,8,0,0,0,5.979-13.314l-64-72A8,8,0,0,0,176,128V232a80,80,0,0,0,160,0V129.566A48.01,48.01,0,0,0,359.3,96H464a16.019,16.019,0,0,1,16,16ZM64,144H48v64H64Zm0-32H48v16H64ZM180.321,291.07A95.04,95.04,0,0,1,160,232a97.067,97.067,0,0,1,1.13-14.778l-15.813-2.444A113.219,113.219,0,0,0,144,232a110.9,110.9,0,0,0,23.716,68.927Zm164.325-95.994a95.371,95.371,0,0,1,6.224,22.142l15.813-2.442a111.41,111.41,0,0,0-7.27-25.858ZM368,232H352a95.485,95.485,0,0,1-36.927,75.679l9.854,12.605A111.384,111.384,0,0,0,368,232Zm96,48H448v24H424v16h32a8,8,0,0,0,8-8ZM320,16H304V56h16Z"/></g></svg>
